<svg width="40" height="40" viewBox="0 0 40 40" fill="none" xmlns="http://www.w3.org/2000/svg">
<g filter="url(#filter0_ii_4403_17241)">
<path d="M7.48796 1.23242C6.49245 1.23242 5.53771 1.62789 4.83377 2.33182C4.12984 3.03575 3.73438 3.99049 3.73438 4.98601V35.0147C3.73438 36.0102 4.12984 36.9649 4.83377 37.6689C5.53771 38.3728 6.49245 38.7683 7.48796 38.7683H32.5118C33.5074 38.7683 34.4621 38.3728 35.166 37.6689C35.87 36.9649 36.2654 36.0102 36.2654 35.0147V12.7865C36.2654 10.6648 35.4226 8.62993 33.9223 7.12964L30.3682 3.57557C28.8679 2.07528 26.8331 1.23242 24.7114 1.23242H7.48796Z" fill="url(#paint0_linear_4403_17241)"/>
</g>
<g filter="url(#filter1_dd_4403_17241)">
<path d="M20.0029 12.1514C22.1424 12.1509 24.2181 12.8822 25.8848 14.2236L26.6689 13.4385C26.8637 13.245 27.1278 13.1367 27.4023 13.1367C27.6767 13.1368 27.9402 13.2451 28.1348 13.4385L28.1445 13.4492C28.338 13.6439 28.4473 13.9071 28.4473 14.1816C28.4473 14.4562 28.338 14.7194 28.1445 14.9141L27.3604 15.6992C28.4674 17.0842 29.1605 18.7538 29.3604 20.5156C29.5602 22.2775 29.2581 24.0604 28.4893 25.6582C27.7204 27.2558 26.516 28.6037 25.0146 29.5469C23.5132 30.49 21.776 30.9902 20.0029 30.9893C18.7446 30.9897 17.4983 30.738 16.3389 30.249C15.1796 29.7601 14.1298 29.0439 13.252 28.1426C12.374 27.2412 11.6858 26.1728 11.2275 25.001C10.7693 23.8291 10.5505 22.5772 10.584 21.3193C10.7096 16.2959 14.9795 12.1514 20.0029 12.1514ZM20 16.1406C17.104 16.1406 14.7559 18.4888 14.7559 21.3848C14.7561 24.2805 17.1042 26.6279 20 26.6279C22.8958 26.6279 25.2429 24.2805 25.2432 21.3848C25.2432 18.4888 22.896 16.1407 20 16.1406ZM22.0957 9.01172C22.6713 9.01172 23.1426 9.48299 23.1426 10.0586C23.1424 10.634 22.6712 11.1045 22.0957 11.1045H17.9102C17.3347 11.1045 16.8635 10.634 16.8633 10.0586C16.8633 9.48299 17.3346 9.01172 17.9102 9.01172H22.0957Z" fill="white"/>
</g>
<defs>
<filter id="filter0_ii_4403_17241" x="3.73438" y="-0.767578" width="32.5312" height="43.5361" filterUnits="userSpaceOnUse" color-interpolation-filters="sRGB">
<feFlood flood-opacity="0" result="BackgroundImageFix"/>
<feBlend mode="normal" in="SourceGraphic" in2="BackgroundImageFix" result="shape"/>
<feColorMatrix in="SourceAlpha" type="matrix" values="0 0 0 0 0 0 0 0 0 0 0 0 0 0 0 0 0 0 127 0" result="hardAlpha"/>
<feOffset dy="-2"/>
<feGaussianBlur stdDeviation="2"/>
<feComposite in2="hardAlpha" operator="arithmetic" k2="-1" k3="1"/>
<feColorMatrix type="matrix" values="0 0 0 0 0 0 0 0 0 0 0 0 0 0 0 0 0 0 0.8 0"/>
<feBlend mode="normal" in2="shape" result="effect1_innerShadow_4403_17241"/>
<feColorMatrix in="SourceAlpha" type="matrix" values="0 0 0 0 0 0 0 0 0 0 0 0 0 0 0 0 0 0 127 0" result="hardAlpha"/>
<feOffset dy="4"/>
<feGaussianBlur stdDeviation="2"/>
<feComposite in2="hardAlpha" operator="arithmetic" k2="-1" k3="1"/>
<feColorMatrix type="matrix" values="0 0 0 0 1 0 0 0 0 1 0 0 0 0 1 0 0 0 0.25 0"/>
<feBlend mode="normal" in2="effect1_innerShadow_4403_17241" result="effect2_innerShadow_4403_17241"/>
</filter>
<filter id="filter1_dd_4403_17241" x="5.58105" y="3.01172" width="28.5389" height="32.6775" filterUnits="userSpaceOnUse" color-interpolation-filters="sRGB">
<feFlood flood-opacity="0" result="BackgroundImageFix"/>
<feColorMatrix in="SourceAlpha" type="matrix" values="0 0 0 0 0 0 0 0 0 0 0 0 0 0 0 0 0 0 127 0" result="hardAlpha"/>
<feOffset dx="2" dy="2"/>
<feGaussianBlur stdDeviation="1.35"/>
<feComposite in2="hardAlpha" operator="out"/>
<feColorMatrix type="matrix" values="0 0 0 0 0 0 0 0 0 0 0 0 0 0 0 0 0 0 0.5 0"/>
<feBlend mode="normal" in2="BackgroundImageFix" result="effect1_dropShadow_4403_17241"/>
<feColorMatrix in="SourceAlpha" type="matrix" values="0 0 0 0 0 0 0 0 0 0 0 0 0 0 0 0 0 0 127 0" result="hardAlpha"/>
<feOffset dx="-1" dy="-2"/>
<feGaussianBlur stdDeviation="2"/>
<feComposite in2="hardAlpha" operator="out"/>
<feColorMatrix type="matrix" values="0 0 0 0 1 0 0 0 0 1 0 0 0 0 1 0 0 0 0.4 0"/>
<feBlend mode="normal" in2="effect1_dropShadow_4403_17241" result="effect2_dropShadow_4403_17241"/>
<feBlend mode="normal" in="SourceGraphic" in2="effect2_dropShadow_4403_17241" result="shape"/>
</filter>
<linearGradient id="paint0_linear_4403_17241" x1="19.9999" y1="1.23242" x2="19.9999" y2="38.7683" gradientUnits="userSpaceOnUse">
<stop/>
<stop offset="1" stop-color="#464646"/>
</linearGradient>
</defs>
</svg>
