<svg width="40" height="40" viewBox="0 0 40 40" fill="none" xmlns="http://www.w3.org/2000/svg">
<g filter="url(#filter0_ii_4532_19049)">
<rect width="40" height="40" rx="12" fill="url(#paint0_linear_4532_19049)"/>
<g filter="url(#filter1_dd_4532_19049)">
<path d="M26.5459 9.77246C27.3489 9.7727 27.9998 10.4236 28 11.2266V18.5459C27.9998 19.3489 27.3489 19.9998 26.5459 20H22.8867C25.7108 20.0003 28 22.2902 28 25.1143C27.9997 27.9381 25.7106 30.2273 22.8867 30.2275H13.4541C12.6511 30.2273 12.0002 29.5764 12 28.7734V21.4541C12.0002 20.6511 12.6511 20.0002 13.4541 20H17.1143C14.2902 20 12.0003 17.7108 12 14.8867C12 12.0625 14.29 9.77246 17.1143 9.77246H26.5459ZM23.2363 22.3145C21.6924 22.3147 20.4404 23.5663 20.4404 25.1104C20.4406 26.6542 21.6925 27.906 23.2363 27.9062C24.7803 27.9062 26.032 26.6543 26.0322 25.1104C26.0322 23.5662 24.7805 22.3145 23.2363 22.3145ZM17.7637 12.1045C16.2195 12.1045 14.9678 13.3563 14.9678 14.9004C14.9678 16.4445 16.2195 17.6963 17.7637 17.6963C19.3078 17.6963 20.5596 16.4445 20.5596 14.9004C20.5596 13.3563 19.3078 12.1045 17.7637 12.1045Z" fill="white"/>
</g>
</g>
<defs>
<filter id="filter0_ii_4532_19049" x="0" y="-2" width="40" height="46" filterUnits="userSpaceOnUse" color-interpolation-filters="sRGB">
<feFlood flood-opacity="0" result="BackgroundImageFix"/>
<feBlend mode="normal" in="SourceGraphic" in2="BackgroundImageFix" result="shape"/>
<feColorMatrix in="SourceAlpha" type="matrix" values="0 0 0 0 0 0 0 0 0 0 0 0 0 0 0 0 0 0 127 0" result="hardAlpha"/>
<feOffset dy="-2"/>
<feGaussianBlur stdDeviation="2"/>
<feComposite in2="hardAlpha" operator="arithmetic" k2="-1" k3="1"/>
<feColorMatrix type="matrix" values="0 0 0 0 0 0 0 0 0 0 0 0 0 0 0 0 0 0 0.8 0"/>
<feBlend mode="normal" in2="shape" result="effect1_innerShadow_4532_19049"/>
<feColorMatrix in="SourceAlpha" type="matrix" values="0 0 0 0 0 0 0 0 0 0 0 0 0 0 0 0 0 0 127 0" result="hardAlpha"/>
<feOffset dy="4"/>
<feGaussianBlur stdDeviation="2"/>
<feComposite in2="hardAlpha" operator="arithmetic" k2="-1" k3="1"/>
<feColorMatrix type="matrix" values="0 0 0 0 1 0 0 0 0 1 0 0 0 0 1 0 0 0 0.25 0"/>
<feBlend mode="normal" in2="effect1_innerShadow_4532_19049" result="effect2_innerShadow_4532_19049"/>
</filter>
<filter id="filter1_dd_4532_19049" x="7" y="3.77246" width="25.7" height="31.1551" filterUnits="userSpaceOnUse" color-interpolation-filters="sRGB">
<feFlood flood-opacity="0" result="BackgroundImageFix"/>
<feColorMatrix in="SourceAlpha" type="matrix" values="0 0 0 0 0 0 0 0 0 0 0 0 0 0 0 0 0 0 127 0" result="hardAlpha"/>
<feOffset dx="-1" dy="-2"/>
<feGaussianBlur stdDeviation="2"/>
<feComposite in2="hardAlpha" operator="out"/>
<feColorMatrix type="matrix" values="0 0 0 0 1 0 0 0 0 1 0 0 0 0 1 0 0 0 0.4 0"/>
<feBlend mode="normal" in2="BackgroundImageFix" result="effect1_dropShadow_4532_19049"/>
<feColorMatrix in="SourceAlpha" type="matrix" values="0 0 0 0 0 0 0 0 0 0 0 0 0 0 0 0 0 0 127 0" result="hardAlpha"/>
<feOffset dx="2" dy="2"/>
<feGaussianBlur stdDeviation="1.35"/>
<feComposite in2="hardAlpha" operator="out"/>
<feColorMatrix type="matrix" values="0 0 0 0 0 0 0 0 0 0 0 0 0 0 0 0 0 0 0.5 0"/>
<feBlend mode="normal" in2="effect1_dropShadow_4532_19049" result="effect2_dropShadow_4532_19049"/>
<feBlend mode="normal" in="SourceGraphic" in2="effect2_dropShadow_4532_19049" result="shape"/>
</filter>
<linearGradient id="paint0_linear_4532_19049" x1="20" y1="0" x2="20" y2="40" gradientUnits="userSpaceOnUse">
<stop/>
<stop offset="1" stop-color="#464646"/>
</linearGradient>
</defs>
</svg>
